<?xml version="1.0" encoding="utf-8"?>
<!-- Generator: Adobe Illustrator 22.0.0, SVG Export Plug-In . SVG Version: 6.00 Build 0)  -->
<svg version="1.1" id="Capa_1" xmlns="http://www.w3.org/2000/svg" xmlns:xlink="http://www.w3.org/1999/xlink" x="0px" y="0px"
	 viewBox="0 0 282.1 272.1" style="enable-background:new 0 0 282.1 272.1;" xml:space="preserve">
<style type="text/css">
	.st0{fill:#263238;}
</style>
<g>
	<path class="st0" d="M116.9,23.9c0.7,2.1-0.5,4.4-2.6,5s-4.4-0.5-5-2.6c-0.7-2.1,0.5-4.4,2.6-5C113.9,20.7,116.2,21.8,116.9,23.9
		C116.9,23.9,116.9,23.9,116.9,23.9z"/>
	<path class="st0" d="M115.9,22.8c-0.1,0.2-3.6-2.1-7.4-5.7s-6.6-6.5-6.5-6.7s3.4,2.4,7.1,6S116.1,22.6,115.9,22.8z"/>
	<path class="st0" d="M107.7,3.9c0.2,0,0.1,2.2-1.6,4.3s-3.8,2.7-3.9,2.5s1.7-1.2,3.2-3S107.4,3.9,107.7,3.9z"/>
	<path class="st0" d="M110.5,7c0.2,0,0.2,2.2-1.6,4.1s-4,2.1-4,1.9s1.8-0.8,3.4-2.5S110.3,6.9,110.5,7z"/>
	<path class="st0" d="M179.7,71.1c-1.4,1.7-3.9,2-5.6,0.6c-1.7-1.4-2-3.9-0.6-5.6c1.4-1.7,3.9-2,5.6-0.6
		C180.8,66.9,181.1,69.4,179.7,71.1C179.7,71.1,179.7,71.1,179.7,71.1z"/>
	<path class="st0" d="M180.1,69.7c-0.3,0-0.2-4.2,0.8-9.3s1.8-9.1,2-9.1s-0.2,4.2-1.2,9.2S180.3,69.7,180.1,69.7z"/>
	<path class="st0" d="M191.4,52.5c0.1,0.2-1.9,1.3-4.5,1s-4.4-1.7-4.2-1.9s1.9,0.8,4.3,1S191.4,52.3,191.4,52.5z"/>
	<path class="st0" d="M190.4,56.6c0.1,0.2-1.8,1.4-4.3,0.9s-4-2.2-3.8-2.3s1.7,1.1,3.9,1.4S190.3,56.3,190.4,56.6z"/>
	<path class="st0" d="M27.5,245.7c0.6,1.6-0.2,3.5-1.9,4.1c-1.6,0.6-3.5-0.2-4.1-1.9c-0.6-1.6,0.2-3.5,1.9-4.1c0,0,0,0,0,0
		C25.1,243.2,26.9,244,27.5,245.7C27.5,245.7,27.5,245.7,27.5,245.7z"/>
	<path class="st0" d="M26.7,244.9c-0.1,0.2-3-1.6-6-4.4s-5.4-5-5.3-5.1s2.8,1.9,5.8,4.6C24.2,242.7,26.8,244.7,26.7,244.9z"/>
	<path class="st0" d="M19.7,230.1c0.2,0,0.1,1.8-1.2,3.5s-3,2.3-3,2.1s1.3-0.9,2.5-2.5S19.5,230,19.7,230.1z"/>
	<path class="st0" d="M22,232.4c0.2,0,0.2,1.8-1.2,3.3s-3.1,1.8-3.1,1.6s1.4-0.7,2.6-2.1S21.8,232.4,22,232.4z"/>
	<path class="st0" d="M250.5,45c1.4,1.7,3.8,1.9,5.5,0.5s1.9-3.8,0.5-5.5c-1.4-1.7-3.8-1.9-5.5-0.5C249.3,40.9,249.1,43.4,250.5,45
		C250.5,45,250.5,45,250.5,45z"/>
	<path class="st0" d="M250.1,43.6c0.4,0,0.4-4.2-0.6-9.1s-2-8.8-2.3-8.8s0,4.2,1,9S249.7,43.7,250.1,43.6z"/>
	<path class="st0" d="M235.5,30.6c-0.1,0.3,3.1,1.2,6.8,0c1.6-0.5,3.1-1.4,4.2-2.6c0.9-1,1-1.9,0.8-1.9s-0.6,0.5-1.5,1.2
		c-1.2,0.9-2.6,1.6-4,2C238.5,30.4,235.5,30.2,235.5,30.6z"/>
	<path class="st0" d="M238.8,49.9c1.4,1.7,3.8,1.9,5.5,0.5s1.9-3.8,0.5-5.5c-1.4-1.7-3.8-1.9-5.5-0.5
		C237.7,45.7,237.4,48.2,238.8,49.9z"/>
	<path class="st0" d="M238.4,48.5c0.4,0,0.4-4.2-0.6-9.1s-2-8.8-2.3-8.8s0,4.1,1,9S238,48.5,238.4,48.5z"/>
	<path class="st0" d="M235.9,33.3c-0.1,0.3,2.8,1.3,6.4,0.4s5.6-3.3,5.4-3.5s-2.5,1.4-5.7,2.2C238.7,33.2,236,32.9,235.9,33.3z"/>
	<path class="st0" d="M79.2,95.5c-1.4,0.8-3.2,0.4-4-1c-0.8-1.4-0.4-3.2,1-4c1.4-0.8,3.2-0.4,4,1C81,92.8,80.6,94.6,79.2,95.5
		C79.2,95.5,79.2,95.5,79.2,95.5z"/>
	<path class="st0" d="M79.8,94.6c-0.3-0.1,0.8-3,2.7-6.2s3.6-5.7,3.8-5.6s-1,2.9-3,6.1S80.1,94.7,79.8,94.6z"/>
	<path class="st0" d="M93.3,89.1c0,0.2-2.4,0-4.8-1.7c-1-0.7-1.8-1.7-2.3-2.9C85.9,83.6,86,83,86.1,83s0.3,0.5,0.7,1.2
		c0.6,0.9,1.4,1.7,2.3,2.4C91.2,88.2,93.4,88.8,93.3,89.1z"/>
	<path class="st0" d="M86.2,101.8c-1.4,0.8-3.2,0.4-4-1c-0.8-1.4-0.4-3.2,1-4c1.4-0.8,3.1-0.4,4,1C88,99.1,87.6,100.9,86.2,101.8
		C86.2,101.8,86.2,101.8,86.2,101.8z"/>
	<path class="st0" d="M86.8,100.9c-0.3-0.1,0.8-3,2.7-6.2s3.6-5.7,3.8-5.6s-1,2.9-3,6.1S87.1,101,86.8,100.9z"/>
	<path class="st0" d="M92.4,90.9c0,0.3-2.3,0.2-4.6-1.3s-3.1-3.7-2.9-3.8s1.4,1.6,3.4,3S92.4,90.6,92.4,90.9z"/>
	<path class="st0" d="M8.7,114c-0.2,1.1-1.3,1.8-2.4,1.5c-1.1-0.2-1.8-1.3-1.5-2.4c0.2-1.1,1.3-1.8,2.4-1.5c0,0,0,0,0,0
		C8.3,111.8,9,112.9,8.7,114z"/>
	<path class="st0" d="M8.6,113.3c-0.2,0.1-1.1-1.8-1.8-4.3s-1.1-4.5-0.9-4.5s1,1.9,1.6,4.3S8.8,113.2,8.6,113.3z"/>
	<path class="st0" d="M12.3,104c0.1,0.1-1.1,1.2-3.1,1.6c-0.8,0.2-1.7,0.1-2.5-0.2c-0.6-0.3-0.9-0.6-0.8-0.7s0.4,0.1,1,0.2
		c0.8,0.1,1.5,0.1,2.3,0C10.9,104.6,12.2,103.8,12.3,104z"/>
	<path class="st0" d="M15.2,113.5c-0.2,1.1-1.3,1.8-2.4,1.5s-1.8-1.3-1.5-2.4c0.2-1.1,1.3-1.8,2.4-1.5c0,0,0,0,0,0
		C14.8,111.4,15.4,112.5,15.2,113.5z"/>
	<path class="st0" d="M15,112.8c-0.2,0.1-1.1-1.8-1.8-4.3s-1.1-4.5-0.9-4.5s1,1.9,1.6,4.4S15.2,112.7,15,112.8z"/>
	<path class="st0" d="M12.7,105.3c0.1,0.1-1,1.3-2.8,1.6s-3.3-0.2-3.3-0.4s1.4,0.1,3.1-0.3S12.6,105.1,12.7,105.3z"/>
	<path class="st0" d="M268.2,241.6c-0.7,0.4-1.6,0.2-2-0.5c-0.4-0.7-0.2-1.6,0.5-2c0.7-0.4,1.5-0.2,2,0.5
		C269.1,240.3,268.9,241.2,268.2,241.6C268.2,241.6,268.2,241.6,268.2,241.6z"/>
	<path class="st0" d="M268.5,241.2c0.2-1.1,0.7-2.2,1.3-3.1c0.5-1,1.1-1.9,1.9-2.8c-0.3,1.1-0.8,2.1-1.4,3
		C269.8,239.3,269.2,240.3,268.5,241.2z"/>
	<path class="st0" d="M275.2,238.4c-0.9,0-1.7-0.3-2.4-0.8c-0.5-0.4-0.9-0.8-1.1-1.4c-0.2-0.4-0.1-0.8-0.1-0.8s0.1,0.3,0.4,0.6
		c0.3,0.5,0.7,0.9,1.1,1.2C274.1,237.9,275.2,238.2,275.2,238.4z"/>
	<path class="st0" d="M271.7,244.7c-0.7,0.4-1.6,0.1-2-0.5c-0.4-0.7-0.2-1.5,0.5-1.9c0.7-0.4,1.6-0.1,2,0.5
		C272.5,243.5,272.3,244.3,271.7,244.7z"/>
	<path class="st0" d="M272,244.3c0.2-1.1,0.7-2.2,1.3-3.1c0.5-1,1.1-1.9,1.9-2.8c-0.3,1.1-0.8,2.1-1.4,3
		C273.2,242.4,272.7,243.4,272,244.3z"/>
	<path class="st0" d="M274.7,239.3c-0.8,0.1-1.6-0.1-2.3-0.6c-1.1-0.8-1.6-1.8-1.4-1.9s0.7,0.8,1.7,1.5
		C273.7,238.9,274.7,239.1,274.7,239.3z"/>
</g>
</svg>
